<svg width="653" height="486" viewBox="0 0 653 486" fill="none" xmlns="http://www.w3.org/2000/svg">
<path d="M255.368 477.53V469.13H256.256V477.53H255.368ZM261.953 471.17C262.465 471.17 262.913 471.27 263.297 471.47C263.689 471.662 263.993 471.958 264.209 472.358C264.433 472.758 264.545 473.262 264.545 473.87V477.53H263.693V473.954C263.693 473.29 263.525 472.79 263.189 472.454C262.861 472.11 262.397 471.938 261.797 471.938C261.349 471.938 260.957 472.03 260.621 472.214C260.293 472.39 260.037 472.65 259.853 472.994C259.677 473.33 259.589 473.738 259.589 474.218V477.53H258.737V471.23H259.553V472.958L259.421 472.634C259.621 472.178 259.941 471.822 260.381 471.566C260.821 471.302 261.345 471.17 261.953 471.17ZM269.39 477.59C268.766 477.59 268.206 477.454 267.71 477.182C267.222 476.902 266.838 476.522 266.558 476.042C266.278 475.554 266.138 474.998 266.138 474.374C266.138 473.742 266.278 473.186 266.558 472.706C266.838 472.226 267.222 471.85 267.71 471.578C268.206 471.306 268.766 471.17 269.39 471.17C269.926 471.17 270.41 471.274 270.842 471.482C271.274 471.69 271.614 472.002 271.862 472.418L271.226 472.85C271.01 472.53 270.742 472.294 270.422 472.142C270.102 471.99 269.754 471.914 269.378 471.914C268.93 471.914 268.526 472.018 268.166 472.226C267.806 472.426 267.522 472.71 267.314 473.078C267.106 473.446 267.002 473.878 267.002 474.374C267.002 474.87 267.106 475.302 267.314 475.67C267.522 476.038 267.806 476.326 268.166 476.534C268.526 476.734 268.93 476.834 269.378 476.834C269.754 476.834 270.102 476.758 270.422 476.606C270.742 476.454 271.01 476.222 271.226 475.91L271.862 476.342C271.614 476.75 271.274 477.062 270.842 477.278C270.41 477.486 269.926 477.59 269.39 477.59ZM275.927 477.59C275.319 477.59 274.771 477.454 274.283 477.182C273.803 476.902 273.423 476.522 273.143 476.042C272.863 475.554 272.723 474.998 272.723 474.374C272.723 473.742 272.863 473.186 273.143 472.706C273.423 472.226 273.803 471.85 274.283 471.578C274.763 471.306 275.311 471.17 275.927 471.17C276.551 471.17 277.103 471.306 277.583 471.578C278.071 471.85 278.451 472.226 278.723 472.706C279.003 473.186 279.143 473.742 279.143 474.374C279.143 474.998 279.003 475.554 278.723 476.042C278.451 476.522 278.071 476.902 277.583 477.182C277.095 477.454 276.543 477.59 275.927 477.59ZM275.927 476.834C276.383 476.834 276.787 476.734 277.139 476.534C277.491 476.326 277.767 476.038 277.967 475.67C278.175 475.294 278.279 474.862 278.279 474.374C278.279 473.878 278.175 473.446 277.967 473.078C277.767 472.71 277.491 472.426 277.139 472.226C276.787 472.018 276.387 471.914 275.939 471.914C275.491 471.914 275.091 472.018 274.739 472.226C274.387 472.426 274.107 472.71 273.899 473.078C273.691 473.446 273.587 473.878 273.587 474.374C273.587 474.862 273.691 475.294 273.899 475.67C274.107 476.038 274.387 476.326 274.739 476.534C275.091 476.734 275.487 476.834 275.927 476.834ZM288.682 471.17C289.194 471.17 289.638 471.27 290.014 471.47C290.398 471.662 290.694 471.958 290.902 472.358C291.118 472.758 291.226 473.262 291.226 473.87V477.53H290.374V473.954C290.374 473.29 290.214 472.79 289.894 472.454C289.582 472.11 289.138 471.938 288.562 471.938C288.13 471.938 287.754 472.03 287.434 472.214C287.122 472.39 286.878 472.65 286.702 472.994C286.534 473.33 286.45 473.738 286.45 474.218V477.53H285.598V473.954C285.598 473.29 285.438 472.79 285.118 472.454C284.798 472.11 284.35 471.938 283.774 471.938C283.35 471.938 282.978 472.03 282.658 472.214C282.338 472.39 282.09 472.65 281.914 472.994C281.746 473.33 281.662 473.738 281.662 474.218V477.53H280.81V471.23H281.626V472.934L281.494 472.634C281.686 472.178 281.994 471.822 282.418 471.566C282.85 471.302 283.358 471.17 283.942 471.17C284.558 471.17 285.082 471.326 285.514 471.638C285.946 471.942 286.226 472.402 286.354 473.018L286.018 472.886C286.202 472.374 286.526 471.962 286.99 471.65C287.462 471.33 288.026 471.17 288.682 471.17ZM296.141 477.59C295.485 477.59 294.909 477.454 294.413 477.182C293.917 476.902 293.529 476.522 293.249 476.042C292.969 475.554 292.829 474.998 292.829 474.374C292.829 473.75 292.961 473.198 293.225 472.718C293.497 472.238 293.865 471.862 294.329 471.59C294.801 471.31 295.329 471.17 295.913 471.17C296.505 471.17 297.029 471.306 297.485 471.578C297.949 471.842 298.313 472.218 298.577 472.706C298.841 473.186 298.973 473.742 298.973 474.374C298.973 474.414 298.969 474.458 298.961 474.506C298.961 474.546 298.961 474.59 298.961 474.638H293.477V474.002H298.505L298.169 474.254C298.169 473.798 298.069 473.394 297.869 473.042C297.677 472.682 297.413 472.402 297.077 472.202C296.741 472.002 296.353 471.902 295.913 471.902C295.481 471.902 295.093 472.002 294.749 472.202C294.405 472.402 294.137 472.682 293.945 473.042C293.753 473.402 293.657 473.814 293.657 474.278V474.41C293.657 474.89 293.761 475.314 293.969 475.682C294.185 476.042 294.481 476.326 294.857 476.534C295.241 476.734 295.677 476.834 296.165 476.834C296.549 476.834 296.905 476.766 297.233 476.63C297.569 476.494 297.857 476.286 298.097 476.006L298.577 476.558C298.297 476.894 297.945 477.15 297.521 477.326C297.105 477.502 296.645 477.59 296.141 477.59Z" fill="#4F5665"/>
<path d="M387.16 472.886H391.6V473.642H387.16V472.886ZM387.256 476.762H392.308V477.53H386.368V469.13H392.128V469.898H387.256V476.762ZM393.008 477.53L395.672 474.074L395.66 474.494L393.128 471.23H394.088L396.164 473.93L395.804 473.918L397.88 471.23H398.816L396.26 474.53L396.272 474.074L398.96 477.53H397.988L395.792 474.65L396.128 474.698L393.968 477.53H393.008ZM403.558 477.59C403.014 477.59 402.522 477.466 402.082 477.218C401.642 476.962 401.29 476.598 401.026 476.126C400.77 475.646 400.642 475.062 400.642 474.374C400.642 473.686 400.77 473.106 401.026 472.634C401.282 472.154 401.63 471.79 402.07 471.542C402.51 471.294 403.006 471.17 403.558 471.17C404.158 471.17 404.694 471.306 405.166 471.578C405.646 471.842 406.022 472.218 406.294 472.706C406.566 473.186 406.702 473.742 406.702 474.374C406.702 475.014 406.566 475.574 406.294 476.054C406.022 476.534 405.646 476.91 405.166 477.182C404.694 477.454 404.158 477.59 403.558 477.59ZM400.306 479.858V471.23H401.122V473.126L401.038 474.386L401.158 475.658V479.858H400.306ZM403.498 476.834C403.946 476.834 404.346 476.734 404.698 476.534C405.05 476.326 405.33 476.038 405.538 475.67C405.746 475.294 405.85 474.862 405.85 474.374C405.85 473.886 405.746 473.458 405.538 473.09C405.33 472.722 405.05 472.434 404.698 472.226C404.346 472.018 403.946 471.914 403.498 471.914C403.05 471.914 402.646 472.018 402.286 472.226C401.934 472.434 401.654 472.722 401.446 473.09C401.246 473.458 401.146 473.886 401.146 474.374C401.146 474.862 401.246 475.294 401.446 475.67C401.654 476.038 401.934 476.326 402.286 476.534C402.646 476.734 403.05 476.834 403.498 476.834ZM411.043 477.59C410.387 477.59 409.811 477.454 409.315 477.182C408.819 476.902 408.431 476.522 408.151 476.042C407.871 475.554 407.731 474.998 407.731 474.374C407.731 473.75 407.863 473.198 408.127 472.718C408.399 472.238 408.767 471.862 409.231 471.59C409.703 471.31 410.231 471.17 410.815 471.17C411.407 471.17 411.931 471.306 412.387 471.578C412.851 471.842 413.215 472.218 413.479 472.706C413.743 473.186 413.875 473.742 413.875 474.374C413.875 474.414 413.871 474.458 413.863 474.506C413.863 474.546 413.863 474.59 413.863 474.638H408.379V474.002H413.407L413.071 474.254C413.071 473.798 412.971 473.394 412.771 473.042C412.579 472.682 412.315 472.402 411.979 472.202C411.643 472.002 411.255 471.902 410.815 471.902C410.383 471.902 409.995 472.002 409.651 472.202C409.307 472.402 409.039 472.682 408.847 473.042C408.655 473.402 408.559 473.814 408.559 474.278V474.41C408.559 474.89 408.663 475.314 408.871 475.682C409.087 476.042 409.383 476.326 409.759 476.534C410.143 476.734 410.579 476.834 411.067 476.834C411.451 476.834 411.807 476.766 412.135 476.63C412.471 476.494 412.759 476.286 412.999 476.006L413.479 476.558C413.199 476.894 412.847 477.15 412.423 477.326C412.007 477.502 411.547 477.59 411.043 477.59ZM418.753 471.17C419.265 471.17 419.713 471.27 420.097 471.47C420.489 471.662 420.793 471.958 421.009 472.358C421.233 472.758 421.345 473.262 421.345 473.87V477.53H420.493V473.954C420.493 473.29 420.325 472.79 419.989 472.454C419.661 472.11 419.197 471.938 418.597 471.938C418.149 471.938 417.757 472.03 417.421 472.214C417.093 472.39 416.837 472.65 416.653 472.994C416.477 473.33 416.389 473.738 416.389 474.218V477.53H415.537V471.23H416.353V472.958L416.221 472.634C416.421 472.178 416.741 471.822 417.181 471.566C417.621 471.302 418.145 471.17 418.753 471.17ZM425.266 477.59C424.746 477.59 424.254 477.518 423.79 477.374C423.326 477.222 422.962 477.034 422.698 476.81L423.082 476.138C423.338 476.33 423.666 476.498 424.066 476.642C424.466 476.778 424.886 476.846 425.326 476.846C425.926 476.846 426.358 476.754 426.622 476.57C426.886 476.378 427.018 476.126 427.018 475.814C427.018 475.582 426.942 475.402 426.79 475.274C426.646 475.138 426.454 475.038 426.214 474.974C425.974 474.902 425.706 474.842 425.41 474.794C425.114 474.746 424.818 474.69 424.522 474.626C424.234 474.562 423.97 474.47 423.73 474.35C423.49 474.222 423.294 474.05 423.142 473.834C422.998 473.618 422.926 473.33 422.926 472.97C422.926 472.626 423.022 472.318 423.214 472.046C423.406 471.774 423.686 471.562 424.054 471.41C424.43 471.25 424.886 471.17 425.422 471.17C425.83 471.17 426.238 471.226 426.646 471.338C427.054 471.442 427.39 471.582 427.654 471.758L427.282 472.442C427.002 472.25 426.702 472.114 426.382 472.034C426.062 471.946 425.742 471.902 425.422 471.902C424.854 471.902 424.434 472.002 424.162 472.202C423.898 472.394 423.766 472.642 423.766 472.946C423.766 473.186 423.838 473.374 423.982 473.51C424.134 473.646 424.33 473.754 424.57 473.834C424.818 473.906 425.086 473.966 425.374 474.014C425.67 474.062 425.962 474.122 426.25 474.194C426.546 474.258 426.814 474.35 427.054 474.47C427.302 474.582 427.498 474.746 427.642 474.962C427.794 475.17 427.87 475.446 427.87 475.79C427.87 476.158 427.766 476.478 427.558 476.75C427.358 477.014 427.062 477.222 426.67 477.374C426.286 477.518 425.818 477.59 425.266 477.59ZM432.037 477.59C431.381 477.59 430.805 477.454 430.309 477.182C429.813 476.902 429.425 476.522 429.145 476.042C428.865 475.554 428.725 474.998 428.725 474.374C428.725 473.75 428.857 473.198 429.121 472.718C429.393 472.238 429.761 471.862 430.225 471.59C430.697 471.31 431.225 471.17 431.809 471.17C432.401 471.17 432.925 471.306 433.381 471.578C433.845 471.842 434.209 472.218 434.473 472.706C434.737 473.186 434.869 473.742 434.869 474.374C434.869 474.414 434.865 474.458 434.857 474.506C434.857 474.546 434.857 474.59 434.857 474.638H429.373V474.002H434.401L434.065 474.254C434.065 473.798 433.965 473.394 433.765 473.042C433.573 472.682 433.309 472.402 432.973 472.202C432.637 472.002 432.249 471.902 431.809 471.902C431.377 471.902 430.989 472.002 430.645 472.202C430.301 472.402 430.033 472.682 429.841 473.042C429.649 473.402 429.553 473.814 429.553 474.278V474.41C429.553 474.89 429.657 475.314 429.865 475.682C430.081 476.042 430.377 476.326 430.753 476.534C431.137 476.734 431.573 476.834 432.061 476.834C432.445 476.834 432.801 476.766 433.129 476.63C433.465 476.494 433.753 476.286 433.993 476.006L434.473 476.558C434.193 476.894 433.841 477.15 433.417 477.326C433.001 477.502 432.541 477.59 432.037 477.59Z" fill="#4F5665"/>
<circle cx="229" cy="473.53" r="12" fill="#2948FF"/>
<circle cx="360" cy="473.53" r="12" fill="#D00000"/>
<path d="M55 390.003H653" stroke="black"/>
<path d="M97.7139 404.311V390.003" stroke="black"/>
<path d="M183.143 404.311V390.003" stroke="black"/>
<path d="M268.571 404.311V390.003" stroke="black"/>
<path d="M354 404.311V390.003" stroke="black"/>
<path d="M439.428 404.311V390.003" stroke="black"/>
<path d="M524.856 404.311V390.003" stroke="black"/>
<path d="M610.285 404.311V390.003" stroke="black"/>
<path d="M49 390.003H55" stroke="black"/>
<path d="M40.25 383.665C39.608 383.665 39.0611 383.49 38.6094 383.141C38.1577 382.789 37.8125 382.279 37.5739 381.611C37.3352 380.941 37.2159 380.131 37.2159 379.182C37.2159 378.239 37.3352 377.434 37.5739 376.766C37.8153 376.096 38.1619 375.584 38.6136 375.232C39.0682 374.877 39.6136 374.699 40.25 374.699C40.8864 374.699 41.4304 374.877 41.8821 375.232C42.3366 375.584 42.6832 376.096 42.9219 376.766C43.1634 377.434 43.2841 378.239 43.2841 379.182C43.2841 380.131 43.1648 380.941 42.9261 381.611C42.6875 382.279 42.3423 382.789 41.8906 383.141C41.4389 383.49 40.892 383.665 40.25 383.665ZM40.25 382.728C40.8864 382.728 41.3807 382.421 41.733 381.807C42.0852 381.194 42.2614 380.319 42.2614 379.182C42.2614 378.426 42.1804 377.783 42.0185 377.252C41.8594 376.721 41.6293 376.316 41.3281 376.037C41.0298 375.759 40.6705 375.62 40.25 375.62C39.6193 375.62 39.1264 375.931 38.7713 376.553C38.4162 377.172 38.2386 378.049 38.2386 379.182C38.2386 379.938 38.3182 380.58 38.4773 381.108C38.6364 381.637 38.8651 382.039 39.1634 382.314C39.4645 382.59 39.8267 382.728 40.25 382.728Z" fill="black"/>
<path d="M49 294.616H55" stroke="black"/>
<path d="M7.837 288.158V287.391L10.7177 284.238C11.0558 283.868 11.3342 283.547 11.5529 283.275C11.7717 282.999 11.9336 282.741 12.0387 282.499C12.1467 282.255 12.2006 281.999 12.2006 281.732C12.2006 281.425 12.1268 281.16 11.979 280.935C11.8342 280.711 11.6353 280.538 11.3825 280.415C11.1296 280.293 10.8455 280.232 10.5302 280.232C10.195 280.232 9.90234 280.302 9.65234 280.441C9.40518 280.577 9.21342 280.769 9.07706 281.016C8.94354 281.263 8.87678 281.553 8.87678 281.886H7.87109C7.87109 281.374 7.98899 280.925 8.22479 280.539C8.46058 280.153 8.78161 279.851 9.18786 279.636C9.59695 279.42 10.0558 279.312 10.5643 279.312C11.0756 279.312 11.5288 279.42 11.9237 279.636C12.3185 279.851 12.6282 280.143 12.8526 280.509C13.0771 280.876 13.1893 281.283 13.1893 281.732C13.1893 282.053 13.131 282.367 13.0146 282.674C12.9009 282.978 12.7021 283.317 12.418 283.692C12.1367 284.065 11.7461 284.519 11.2461 285.056L9.28587 287.153V287.221H13.3427V288.158H7.837ZM17.8299 288.278C17.3299 288.278 16.8796 288.178 16.479 287.979C16.0785 287.78 15.7575 287.508 15.516 287.161C15.2745 286.815 15.1424 286.42 15.1197 285.976H16.1424C16.1822 286.371 16.3612 286.698 16.6793 286.957C17.0004 287.212 17.3839 287.34 17.8299 287.34C18.1879 287.34 18.506 287.256 18.7844 287.089C19.0657 286.921 19.2859 286.691 19.445 286.398C19.6069 286.103 19.6879 285.769 19.6879 285.397C19.6879 285.016 19.604 284.677 19.4364 284.378C19.2717 284.077 19.0444 283.84 18.7546 283.667C18.4648 283.493 18.1339 283.405 17.7617 283.403C17.4947 283.4 17.2205 283.441 16.9393 283.526C16.658 283.609 16.4265 283.715 16.2447 283.846L15.256 283.726L15.7844 279.431H20.3185V280.368H16.6708L16.364 282.942H16.4151C16.5941 282.8 16.8185 282.682 17.0884 282.589C17.3583 282.495 17.6396 282.448 17.9322 282.448C18.4663 282.448 18.9421 282.576 19.3597 282.832C19.7802 283.084 20.1097 283.431 20.3484 283.871C20.5898 284.312 20.7106 284.815 20.7106 285.38C20.7106 285.937 20.5856 286.434 20.3356 286.871C20.0884 287.306 19.7475 287.65 19.3129 287.903C18.8782 288.153 18.3839 288.278 17.8299 288.278ZM25.25 288.278C24.608 288.278 24.0611 288.103 23.6094 287.753C23.1577 287.401 22.8125 286.891 22.5739 286.224C22.3352 285.553 22.2159 284.743 22.2159 283.795C22.2159 282.851 22.3352 282.046 22.5739 281.378C22.8153 280.708 23.1619 280.197 23.6136 279.844C24.0682 279.489 24.6136 279.312 25.25 279.312C25.8864 279.312 26.4304 279.489 26.8821 279.844C27.3366 280.197 27.6832 280.708 27.9219 281.378C28.1634 282.046 28.2841 282.851 28.2841 283.795C28.2841 284.743 28.1648 285.553 27.9261 286.224C27.6875 286.891 27.3423 287.401 26.8906 287.753C26.4389 288.103 25.892 288.278 25.25 288.278ZM25.25 287.34C25.8864 287.34 26.3807 287.033 26.733 286.42C27.0852 285.806 27.2614 284.931 27.2614 283.795C27.2614 283.039 27.1804 282.395 27.0185 281.864C26.8594 281.333 26.6293 280.928 26.3281 280.65C26.0298 280.371 25.6705 280.232 25.25 280.232C24.6193 280.232 24.1264 280.543 23.7713 281.165C23.4162 281.785 23.2386 282.661 23.2386 283.795C23.2386 284.55 23.3182 285.192 23.4773 285.721C23.6364 286.249 23.8651 286.651 24.1634 286.927C24.4645 287.202 24.8267 287.34 25.25 287.34ZM32.75 288.278C32.108 288.278 31.5611 288.103 31.1094 287.753C30.6577 287.401 30.3125 286.891 30.0739 286.224C29.8352 285.553 29.7159 284.743 29.7159 283.795C29.7159 282.851 29.8352 282.046 30.0739 281.378C30.3153 280.708 30.6619 280.197 31.1136 279.844C31.5682 279.489 32.1136 279.312 32.75 279.312C33.3864 279.312 33.9304 279.489 34.3821 279.844C34.8366 280.197 35.1832 280.708 35.4219 281.378C35.6634 282.046 35.7841 282.851 35.7841 283.795C35.7841 284.743 35.6648 285.553 35.4261 286.224C35.1875 286.891 34.8423 287.401 34.3906 287.753C33.9389 288.103 33.392 288.278 32.75 288.278ZM32.75 287.34C33.3864 287.34 33.8807 287.033 34.233 286.42C34.5852 285.806 34.7614 284.931 34.7614 283.795C34.7614 283.039 34.6804 282.395 34.5185 281.864C34.3594 281.333 34.1293 280.928 33.8281 280.65C33.5298 280.371 33.1705 280.232 32.75 280.232C32.1193 280.232 31.6264 280.543 31.2713 281.165C30.9162 281.785 30.7386 282.661 30.7386 283.795C30.7386 284.55 30.8182 285.192 30.9773 285.721C31.1364 286.249 31.3651 286.651 31.6634 286.927C31.9645 287.202 32.3267 287.34 32.75 287.34ZM40.25 288.278C39.608 288.278 39.0611 288.103 38.6094 287.753C38.1577 287.401 37.8125 286.891 37.5739 286.224C37.3352 285.553 37.2159 284.743 37.2159 283.795C37.2159 282.851 37.3352 282.046 37.5739 281.378C37.8153 280.708 38.1619 280.197 38.6136 279.844C39.0682 279.489 39.6136 279.312 40.25 279.312C40.8864 279.312 41.4304 279.489 41.8821 279.844C42.3366 280.197 42.6832 280.708 42.9219 281.378C43.1634 282.046 43.2841 282.851 43.2841 283.795C43.2841 284.743 43.1648 285.553 42.9261 286.224C42.6875 286.891 42.3423 287.401 41.8906 287.753C41.4389 288.103 40.892 288.278 40.25 288.278ZM40.25 287.34C40.8864 287.34 41.3807 287.033 41.733 286.42C42.0852 285.806 42.2614 284.931 42.2614 283.795C42.2614 283.039 42.1804 282.395 42.0185 281.864C41.8594 281.333 41.6293 280.928 41.3281 280.65C41.0298 280.371 40.6705 280.232 40.25 280.232C39.6193 280.232 39.1264 280.543 38.7713 281.165C38.4162 281.785 38.2386 282.661 38.2386 283.795C38.2386 284.55 38.3182 285.192 38.4773 285.721C38.6364 286.249 38.8651 286.651 39.1634 286.927C39.4645 287.202 39.8267 287.34 40.25 287.34Z" fill="black"/>
<path d="M49 199.228H55" stroke="black"/>
<path d="M10.3299 192.89C9.8299 192.89 9.37962 192.791 8.97905 192.592C8.57848 192.393 8.25746 192.12 8.01598 191.773C7.7745 191.427 7.6424 191.032 7.61967 190.589H8.6424C8.68217 190.984 8.86115 191.31 9.17933 191.569C9.50036 191.825 9.88388 191.952 10.3299 191.952C10.6879 191.952 11.006 191.869 11.2844 191.701C11.5657 191.533 11.7859 191.303 11.945 191.011C12.1069 190.715 12.1879 190.381 12.1879 190.009C12.1879 189.629 12.104 189.289 11.9364 188.991C11.7717 188.69 11.5444 188.452 11.2546 188.279C10.9648 188.106 10.6339 188.018 10.2617 188.015C9.99467 188.012 9.72053 188.053 9.43928 188.139C9.15803 188.221 8.92649 188.327 8.74467 188.458L7.75604 188.339L8.28445 184.043H12.8185V184.981H9.17081L8.86399 187.555H8.91513C9.09411 187.413 9.31854 187.295 9.58842 187.201C9.85831 187.107 10.1396 187.06 10.4322 187.06C10.9663 187.06 11.4421 187.188 11.8597 187.444C12.2802 187.697 12.6097 188.043 12.8484 188.484C13.0898 188.924 13.2106 189.427 13.2106 189.992C13.2106 190.549 13.0856 191.046 12.8356 191.484C12.5884 191.918 12.2475 192.262 11.8129 192.515C11.3782 192.765 10.8839 192.89 10.3299 192.89ZM17.75 192.89C17.108 192.89 16.5611 192.715 16.1094 192.366C15.6577 192.014 15.3125 191.504 15.0739 190.836C14.8352 190.166 14.7159 189.356 14.7159 188.407C14.7159 187.464 14.8352 186.658 15.0739 185.991C15.3153 185.32 15.6619 184.809 16.1136 184.457C16.5682 184.102 17.1136 183.924 17.75 183.924C18.3864 183.924 18.9304 184.102 19.3821 184.457C19.8366 184.809 20.1832 185.32 20.4219 185.991C20.6634 186.658 20.7841 187.464 20.7841 188.407C20.7841 189.356 20.6648 190.166 20.4261 190.836C20.1875 191.504 19.8423 192.014 19.3906 192.366C18.9389 192.715 18.392 192.89 17.75 192.89ZM17.75 191.952C18.3864 191.952 18.8807 191.646 19.233 191.032C19.5852 190.418 19.7614 189.543 19.7614 188.407C19.7614 187.651 19.6804 187.008 19.5185 186.477C19.3594 185.945 19.1293 185.541 18.8281 185.262C18.5298 184.984 18.1705 184.845 17.75 184.845C17.1193 184.845 16.6264 185.156 16.2713 185.778C15.9162 186.397 15.7386 187.273 15.7386 188.407C15.7386 189.163 15.8182 189.805 15.9773 190.333C16.1364 190.862 16.3651 191.264 16.6634 191.539C16.9645 191.815 17.3267 191.952 17.75 191.952ZM25.25 192.89C24.608 192.89 24.0611 192.715 23.6094 192.366C23.1577 192.014 22.8125 191.504 22.5739 190.836C22.3352 190.166 22.2159 189.356 22.2159 188.407C22.2159 187.464 22.3352 186.658 22.5739 185.991C22.8153 185.32 23.1619 184.809 23.6136 184.457C24.0682 184.102 24.6136 183.924 25.25 183.924C25.8864 183.924 26.4304 184.102 26.8821 184.457C27.3366 184.809 27.6832 185.32 27.9219 185.991C28.1634 186.658 28.2841 187.464 28.2841 188.407C28.2841 189.356 28.1648 190.166 27.9261 190.836C27.6875 191.504 27.3423 192.014 26.8906 192.366C26.4389 192.715 25.892 192.89 25.25 192.89ZM25.25 191.952C25.8864 191.952 26.3807 191.646 26.733 191.032C27.0852 190.418 27.2614 189.543 27.2614 188.407C27.2614 187.651 27.1804 187.008 27.0185 186.477C26.8594 185.945 26.6293 185.541 26.3281 185.262C26.0298 184.984 25.6705 184.845 25.25 184.845C24.6193 184.845 24.1264 185.156 23.7713 185.778C23.4162 186.397 23.2386 187.273 23.2386 188.407C23.2386 189.163 23.3182 189.805 23.4773 190.333C23.6364 190.862 23.8651 191.264 24.1634 191.539C24.4645 191.815 24.8267 191.952 25.25 191.952ZM32.75 192.89C32.108 192.89 31.5611 192.715 31.1094 192.366C30.6577 192.014 30.3125 191.504 30.0739 190.836C29.8352 190.166 29.7159 189.356 29.7159 188.407C29.7159 187.464 29.8352 186.658 30.0739 185.991C30.3153 185.32 30.6619 184.809 31.1136 184.457C31.5682 184.102 32.1136 183.924 32.75 183.924C33.3864 183.924 33.9304 184.102 34.3821 184.457C34.8366 184.809 35.1832 185.32 35.4219 185.991C35.6634 186.658 35.7841 187.464 35.7841 188.407C35.7841 189.356 35.6648 190.166 35.4261 190.836C35.1875 191.504 34.8423 192.014 34.3906 192.366C33.9389 192.715 33.392 192.89 32.75 192.89ZM32.75 191.952C33.3864 191.952 33.8807 191.646 34.233 191.032C34.5852 190.418 34.7614 189.543 34.7614 188.407C34.7614 187.651 34.6804 187.008 34.5185 186.477C34.3594 185.945 34.1293 185.541 33.8281 185.262C33.5298 184.984 33.1705 184.845 32.75 184.845C32.1193 184.845 31.6264 185.156 31.2713 185.778C30.9162 186.397 30.7386 187.273 30.7386 188.407C30.7386 189.163 30.8182 189.805 30.9773 190.333C31.1364 190.862 31.3651 191.264 31.6634 191.539C31.9645 191.815 32.3267 191.952 32.75 191.952ZM40.25 192.89C39.608 192.89 39.0611 192.715 38.6094 192.366C38.1577 192.014 37.8125 191.504 37.5739 190.836C37.3352 190.166 37.2159 189.356 37.2159 188.407C37.2159 187.464 37.3352 186.658 37.5739 185.991C37.8153 185.32 38.1619 184.809 38.6136 184.457C39.0682 184.102 39.6136 183.924 40.25 183.924C40.8864 183.924 41.4304 184.102 41.8821 184.457C42.3366 184.809 42.6832 185.32 42.9219 185.991C43.1634 186.658 43.2841 187.464 43.2841 188.407C43.2841 189.356 43.1648 190.166 42.9261 190.836C42.6875 191.504 42.3423 192.014 41.8906 192.366C41.4389 192.715 40.892 192.89 40.25 192.89ZM40.25 191.952C40.8864 191.952 41.3807 191.646 41.733 191.032C42.0852 190.418 42.2614 189.543 42.2614 188.407C42.2614 187.651 42.1804 187.008 42.0185 186.477C41.8594 185.945 41.6293 185.541 41.3281 185.262C41.0298 184.984 40.6705 184.845 40.25 184.845C39.6193 184.845 39.1264 185.156 38.7713 185.778C38.4162 186.397 38.2386 187.273 38.2386 188.407C38.2386 189.163 38.3182 189.805 38.4773 190.333C38.6364 190.862 38.8651 191.264 39.1634 191.539C39.4645 191.815 39.8267 191.952 40.25 191.952Z" fill="black"/>
<path d="M49 103.841H55" stroke="black"/>
<path d="M8.63707 97.3831L12.5405 89.6615V89.5933H8.04048V88.6558H13.6314V89.6444L9.74503 97.3831H8.63707ZM17.8299 97.5024C17.3299 97.5024 16.8796 97.403 16.479 97.2041C16.0785 97.0052 15.7575 96.7325 15.516 96.3859C15.2745 96.0393 15.1424 95.6444 15.1197 95.2013H16.1424C16.1822 95.5961 16.3612 95.9228 16.6793 96.1814C17.0004 96.437 17.3839 96.5649 17.8299 96.5649C18.1879 96.5649 18.506 96.4811 18.7844 96.3135C19.0657 96.1459 19.2859 95.9157 19.445 95.6231C19.6069 95.3277 19.6879 94.9939 19.6879 94.6217C19.6879 94.241 19.604 93.9015 19.4364 93.6032C19.2717 93.3021 19.0444 93.0649 18.7546 92.8916C18.4648 92.7183 18.1339 92.6302 17.7617 92.6274C17.4947 92.6245 17.2205 92.6657 16.9393 92.751C16.658 92.8334 16.4265 92.9399 16.2447 93.0706L15.256 92.9513L15.7844 88.6558H20.3185V89.5933H16.6708L16.364 92.1672H16.4151C16.5941 92.0251 16.8185 91.9072 17.0884 91.8135C17.3583 91.7197 17.6396 91.6728 17.9322 91.6728C18.4663 91.6728 18.9421 91.8007 19.3597 92.0564C19.7802 92.3092 20.1097 92.6558 20.3484 93.0961C20.5898 93.5365 20.7106 94.0393 20.7106 94.6047C20.7106 95.1615 20.5856 95.6586 20.3356 96.0961C20.0884 96.5308 19.7475 96.8745 19.3129 97.1274C18.8782 97.3774 18.3839 97.5024 17.8299 97.5024ZM25.25 97.5024C24.608 97.5024 24.0611 97.3277 23.6094 96.9782C23.1577 96.626 22.8125 96.116 22.5739 95.4484C22.3352 94.778 22.2159 93.9683 22.2159 93.0194C22.2159 92.0763 22.3352 91.2709 22.5739 90.6032C22.8153 89.9328 23.1619 89.4214 23.6136 89.0692C24.0682 88.714 24.6136 88.5365 25.25 88.5365C25.8864 88.5365 26.4304 88.714 26.8821 89.0692C27.3366 89.4214 27.6832 89.9328 27.9219 90.6032C28.1634 91.2709 28.2841 92.0763 28.2841 93.0194C28.2841 93.9683 28.1648 94.778 27.9261 95.4484C27.6875 96.116 27.3423 96.626 26.8906 96.9782C26.4389 97.3277 25.892 97.5024 25.25 97.5024ZM25.25 96.5649C25.8864 96.5649 26.3807 96.2581 26.733 95.6444C27.0852 95.0308 27.2614 94.1558 27.2614 93.0194C27.2614 92.2638 27.1804 91.6203 27.0185 91.089C26.8594 90.5578 26.6293 90.153 26.3281 89.8745C26.0298 89.5961 25.6705 89.4569 25.25 89.4569C24.6193 89.4569 24.1264 89.768 23.7713 90.3902C23.4162 91.0095 23.2386 91.8859 23.2386 93.0194C23.2386 93.7751 23.3182 94.4172 23.4773 94.9456C23.6364 95.474 23.8651 95.876 24.1634 96.1515C24.4645 96.4271 24.8267 96.5649 25.25 96.5649ZM32.75 97.5024C32.108 97.5024 31.5611 97.3277 31.1094 96.9782C30.6577 96.626 30.3125 96.116 30.0739 95.4484C29.8352 94.778 29.7159 93.9683 29.7159 93.0194C29.7159 92.0763 29.8352 91.2709 30.0739 90.6032C30.3153 89.9328 30.6619 89.4214 31.1136 89.0692C31.5682 88.714 32.1136 88.5365 32.75 88.5365C33.3864 88.5365 33.9304 88.714 34.3821 89.0692C34.8366 89.4214 35.1832 89.9328 35.4219 90.6032C35.6634 91.2709 35.7841 92.0763 35.7841 93.0194C35.7841 93.9683 35.6648 94.778 35.4261 95.4484C35.1875 96.116 34.8423 96.626 34.3906 96.9782C33.9389 97.3277 33.392 97.5024 32.75 97.5024ZM32.75 96.5649C33.3864 96.5649 33.8807 96.2581 34.233 95.6444C34.5852 95.0308 34.7614 94.1558 34.7614 93.0194C34.7614 92.2638 34.6804 91.6203 34.5185 91.089C34.3594 90.5578 34.1293 90.153 33.8281 89.8745C33.5298 89.5961 33.1705 89.4569 32.75 89.4569C32.1193 89.4569 31.6264 89.768 31.2713 90.3902C30.9162 91.0095 30.7386 91.8859 30.7386 93.0194C30.7386 93.7751 30.8182 94.4172 30.9773 94.9456C31.1364 95.474 31.3651 95.876 31.6634 96.1515C31.9645 96.4271 32.3267 96.5649 32.75 96.5649ZM40.25 97.5024C39.608 97.5024 39.0611 97.3277 38.6094 96.9782C38.1577 96.626 37.8125 96.116 37.5739 95.4484C37.3352 94.778 37.2159 93.9683 37.2159 93.0194C37.2159 92.0763 37.3352 91.2709 37.5739 90.6032C37.8153 89.9328 38.1619 89.4214 38.6136 89.0692C39.0682 88.714 39.6136 88.5365 40.25 88.5365C40.8864 88.5365 41.4304 88.714 41.8821 89.0692C42.3366 89.4214 42.6832 89.9328 42.9219 90.6032C43.1634 91.2709 43.2841 92.0763 43.2841 93.0194C43.2841 93.9683 43.1648 94.778 42.9261 95.4484C42.6875 96.116 42.3423 96.626 41.8906 96.9782C41.4389 97.3277 40.892 97.5024 40.25 97.5024ZM40.25 96.5649C40.8864 96.5649 41.3807 96.2581 41.733 95.6444C42.0852 95.0308 42.2614 94.1558 42.2614 93.0194C42.2614 92.2638 42.1804 91.6203 42.0185 91.089C41.8594 90.5578 41.6293 90.153 41.3281 89.8745C41.0298 89.5961 40.6705 89.4569 40.25 89.4569C39.6193 89.4569 39.1264 89.768 38.7713 90.3902C38.4162 91.0095 38.2386 91.8859 38.2386 93.0194C38.2386 93.7751 38.3182 94.4172 38.4773 94.9456C38.6364 95.474 38.8651 95.876 39.1634 96.1515C39.4645 96.4271 39.8267 96.5649 40.25 96.5649Z" fill="black"/>
<path d="M49 8.45297H55" stroke="black"/>
<path d="M4.89347 3.27273V12H3.83665V4.38068H3.78551L1.65483 5.79545V4.72159L3.83665 3.27273H4.89347ZM10.25 12.1193C9.60795 12.1193 9.06108 11.9446 8.60938 11.5952C8.15767 11.2429 7.8125 10.733 7.57386 10.0653C7.33523 9.39489 7.21591 8.58523 7.21591 7.63636C7.21591 6.69318 7.33523 5.88778 7.57386 5.22017C7.81534 4.54972 8.16193 4.03835 8.61364 3.68608C9.06818 3.33097 9.61364 3.15341 10.25 3.15341C10.8864 3.15341 11.4304 3.33097 11.8821 3.68608C12.3366 4.03835 12.6832 4.54972 12.9219 5.22017C13.1634 5.88778 13.2841 6.69318 13.2841 7.63636C13.2841 8.58523 13.1648 9.39489 12.9261 10.0653C12.6875 10.733 12.3423 11.2429 11.8906 11.5952C11.4389 11.9446 10.892 12.1193 10.25 12.1193ZM10.25 11.1818C10.8864 11.1818 11.3807 10.875 11.733 10.2614C12.0852 9.64773 12.2614 8.77273 12.2614 7.63636C12.2614 6.88068 12.1804 6.23722 12.0185 5.70597C11.8594 5.17472 11.6293 4.76989 11.3281 4.49148C11.0298 4.21307 10.6705 4.07386 10.25 4.07386C9.61932 4.07386 9.12642 4.38494 8.77131 5.0071C8.41619 5.62642 8.23864 6.50284 8.23864 7.63636C8.23864 8.39205 8.31818 9.03409 8.47727 9.5625C8.63636 10.0909 8.86506 10.4929 9.16335 10.7685C9.46449 11.044 9.8267 11.1818 10.25 11.1818ZM17.75 12.1193C17.108 12.1193 16.5611 11.9446 16.1094 11.5952C15.6577 11.2429 15.3125 10.733 15.0739 10.0653C14.8352 9.39489 14.7159 8.58523 14.7159 7.63636C14.7159 6.69318 14.8352 5.88778 15.0739 5.22017C15.3153 4.54972 15.6619 4.03835 16.1136 3.68608C16.5682 3.33097 17.1136 3.15341 17.75 3.15341C18.3864 3.15341 18.9304 3.33097 19.3821 3.68608C19.8366 4.03835 20.1832 4.54972 20.4219 5.22017C20.6634 5.88778 20.7841 6.69318 20.7841 7.63636C20.7841 8.58523 20.6648 9.39489 20.4261 10.0653C20.1875 10.733 19.8423 11.2429 19.3906 11.5952C18.9389 11.9446 18.392 12.1193 17.75 12.1193ZM17.75 11.1818C18.3864 11.1818 18.8807 10.875 19.233 10.2614C19.5852 9.64773 19.7614 8.77273 19.7614 7.63636C19.7614 6.88068 19.6804 6.23722 19.5185 5.70597C19.3594 5.17472 19.1293 4.76989 18.8281 4.49148C18.5298 4.21307 18.1705 4.07386 17.75 4.07386C17.1193 4.07386 16.6264 4.38494 16.2713 5.0071C15.9162 5.62642 15.7386 6.50284 15.7386 7.63636C15.7386 8.39205 15.8182 9.03409 15.9773 9.5625C16.1364 10.0909 16.3651 10.4929 16.6634 10.7685C16.9645 11.044 17.3267 11.1818 17.75 11.1818ZM25.25 12.1193C24.608 12.1193 24.0611 11.9446 23.6094 11.5952C23.1577 11.2429 22.8125 10.733 22.5739 10.0653C22.3352 9.39489 22.2159 8.58523 22.2159 7.63636C22.2159 6.69318 22.3352 5.88778 22.5739 5.22017C22.8153 4.54972 23.1619 4.03835 23.6136 3.68608C24.0682 3.33097 24.6136 3.15341 25.25 3.15341C25.8864 3.15341 26.4304 3.33097 26.8821 3.68608C27.3366 4.03835 27.6832 4.54972 27.9219 5.22017C28.1634 5.88778 28.2841 6.69318 28.2841 7.63636C28.2841 8.58523 28.1648 9.39489 27.9261 10.0653C27.6875 10.733 27.3423 11.2429 26.8906 11.5952C26.4389 11.9446 25.892 12.1193 25.25 12.1193ZM25.25 11.1818C25.8864 11.1818 26.3807 10.875 26.733 10.2614C27.0852 9.64773 27.2614 8.77273 27.2614 7.63636C27.2614 6.88068 27.1804 6.23722 27.0185 5.70597C26.8594 5.17472 26.6293 4.76989 26.3281 4.49148C26.0298 4.21307 25.6705 4.07386 25.25 4.07386C24.6193 4.07386 24.1264 4.38494 23.7713 5.0071C23.4162 5.62642 23.2386 6.50284 23.2386 7.63636C23.2386 8.39205 23.3182 9.03409 23.4773 9.5625C23.6364 10.0909 23.8651 10.4929 24.1634 10.7685C24.4645 11.044 24.8267 11.1818 25.25 11.1818ZM32.75 12.1193C32.108 12.1193 31.5611 11.9446 31.1094 11.5952C30.6577 11.2429 30.3125 10.733 30.0739 10.0653C29.8352 9.39489 29.7159 8.58523 29.7159 7.63636C29.7159 6.69318 29.8352 5.88778 30.0739 5.22017C30.3153 4.54972 30.6619 4.03835 31.1136 3.68608C31.5682 3.33097 32.1136 3.15341 32.75 3.15341C33.3864 3.15341 33.9304 3.33097 34.3821 3.68608C34.8366 4.03835 35.1832 4.54972 35.4219 5.22017C35.6634 5.88778 35.7841 6.69318 35.7841 7.63636C35.7841 8.58523 35.6648 9.39489 35.4261 10.0653C35.1875 10.733 34.8423 11.2429 34.3906 11.5952C33.9389 11.9446 33.392 12.1193 32.75 12.1193ZM32.75 11.1818C33.3864 11.1818 33.8807 10.875 34.233 10.2614C34.5852 9.64773 34.7614 8.77273 34.7614 7.63636C34.7614 6.88068 34.6804 6.23722 34.5185 5.70597C34.3594 5.17472 34.1293 4.76989 33.8281 4.49148C33.5298 4.21307 33.1705 4.07386 32.75 4.07386C32.1193 4.07386 31.6264 4.38494 31.2713 5.0071C30.9162 5.62642 30.7386 6.50284 30.7386 7.63636C30.7386 8.39205 30.8182 9.03409 30.9773 9.5625C31.1364 10.0909 31.3651 10.4929 31.6634 10.7685C31.9645 11.044 32.3267 11.1818 32.75 11.1818ZM40.25 12.1193C39.608 12.1193 39.0611 11.9446 38.6094 11.5952C38.1577 11.2429 37.8125 10.733 37.5739 10.0653C37.3352 9.39489 37.2159 8.58523 37.2159 7.63636C37.2159 6.69318 37.3352 5.88778 37.5739 5.22017C37.8153 4.54972 38.1619 4.03835 38.6136 3.68608C39.0682 3.33097 39.6136 3.15341 40.25 3.15341C40.8864 3.15341 41.4304 3.33097 41.8821 3.68608C42.3366 4.03835 42.6832 4.54972 42.9219 5.22017C43.1634 5.88778 43.2841 6.69318 43.2841 7.63636C43.2841 8.58523 43.1648 9.39489 42.9261 10.0653C42.6875 10.733 42.3423 11.2429 41.8906 11.5952C41.4389 11.9446 40.892 12.1193 40.25 12.1193ZM40.25 11.1818C40.8864 11.1818 41.3807 10.875 41.733 10.2614C42.0852 9.64773 42.2614 8.77273 42.2614 7.63636C42.2614 6.88068 42.1804 6.23722 42.0185 5.70597C41.8594 5.17472 41.6293 4.76989 41.3281 4.49148C41.0298 4.21307 40.6705 4.07386 40.25 4.07386C39.6193 4.07386 39.1264 4.38494 38.7713 5.0071C38.4162 5.62642 38.2386 6.50284 38.2386 7.63636C38.2386 8.39205 38.3182 9.03409 38.4773 9.5625C38.6364 10.0909 38.8651 10.4929 39.1634 10.7685C39.4645 11.044 39.8267 11.1818 40.25 11.1818Z" fill="black"/>
<path d="M55 390.003H653" stroke="#CCCCCC"/>
<path d="M55 294.616H653" stroke="#E8E8E8"/>
<path d="M55 199.228H653" stroke="#E8E8E8"/>
<path d="M55 103.841H653" stroke="#E8E8E8"/>
<path d="M55 8.453H653" stroke="#E8E8E8"/>
<path d="M63.543 317.496C63.543 313.078 67.1247 309.496 71.543 309.496H87.543C91.9612 309.496 95.543 313.078 95.543 317.496V382.003C95.543 386.422 91.9612 390.003 87.543 390.003H71.543C67.1247 390.003 63.543 386.422 63.543 382.003V317.496Z" fill="#D00000"/>
<path d="M148.972 186.483C148.972 182.065 152.553 178.483 156.972 178.483H172.972C177.39 178.483 180.972 182.065 180.972 186.483V382.003C180.972 386.422 177.39 390.003 172.972 390.003H156.972C152.553 390.003 148.972 386.422 148.972 382.003V186.483Z" fill="#D00000"/>
<path d="M234.4 139.881C234.4 135.462 237.982 131.881 242.4 131.881H258.4C262.819 131.881 266.4 135.462 266.4 139.881V382.003C266.4 386.422 262.819 390.003 258.4 390.003H242.4C237.982 390.003 234.4 386.422 234.4 382.003V139.881Z" fill="#D00000"/>
<path d="M319.829 259.264C319.829 254.846 323.411 251.264 327.829 251.264H343.829C348.247 251.264 351.829 254.846 351.829 259.264V382.003C351.829 386.422 348.247 390.003 343.829 390.003H327.829C323.411 390.003 319.829 386.422 319.829 382.003V259.264Z" fill="#D00000"/>
<path d="M405.257 374.107C405.257 369.689 408.839 366.107 413.257 366.107H429.257C433.675 366.107 437.257 369.689 437.257 374.107V382.003C437.257 386.422 433.675 390.003 429.257 390.003H413.257C408.839 390.003 405.257 386.422 405.257 382.003V374.107Z" fill="#D00000"/>
<path d="M490.686 158.611C490.686 154.193 494.267 150.611 498.686 150.611H514.686C519.104 150.611 522.686 154.193 522.686 158.611V382.003C522.686 386.422 519.104 390.003 514.686 390.003H498.686C494.267 390.003 490.686 386.422 490.686 382.003V158.611Z" fill="#D00000"/>
<path d="M576.114 207.034C576.114 202.629 576.114 200.426 576.958 198.738C577.732 197.188 578.989 195.932 580.538 195.157C582.227 194.314 584.429 194.314 588.834 194.314H595.394C599.799 194.314 602.002 194.314 603.69 195.157C605.24 195.932 606.496 197.188 607.271 198.738C608.114 200.426 608.114 202.629 608.114 207.034V377.283C608.114 381.688 608.114 383.891 607.271 385.579C606.496 387.129 605.24 388.385 603.69 389.16C602.002 390.003 599.799 390.003 595.394 390.003H588.834C584.429 390.003 582.227 390.003 580.538 389.16C578.989 388.385 577.732 387.129 576.958 385.579C576.114 383.891 576.114 381.688 576.114 377.283V207.034Z" fill="#D00000"/>
<path d="M99.543 76.8753C99.543 72.457 103.125 68.8753 107.543 68.8753H123.543C127.961 68.8753 131.543 72.457 131.543 76.8753V382.003C131.543 386.422 127.961 390.003 123.543 390.003H107.543C103.125 390.003 99.543 386.422 99.543 382.003V76.8753Z" fill="#2948FF"/>
<path d="M184.972 78.4969C184.972 74.0786 188.553 70.4969 192.972 70.4969H208.972C213.39 70.4969 216.972 74.0786 216.972 78.4969V382.003C216.972 386.422 213.39 390.003 208.972 390.003H192.972C188.553 390.003 184.972 386.422 184.972 382.003V78.4969Z" fill="#2948FF"/>
<path d="M270.4 63.357C270.4 58.9387 273.982 55.357 278.4 55.357H294.4C298.819 55.357 302.4 58.9387 302.4 63.357V382.003C302.4 386.422 298.819 390.003 294.4 390.003H278.4C273.982 390.003 270.4 386.422 270.4 382.003V63.357Z" fill="#2948FF"/>
<path d="M355.829 271.916C355.829 267.498 359.411 263.916 363.829 263.916H379.829C384.247 263.916 387.829 267.498 387.829 271.916V382.003C387.829 386.422 384.247 390.003 379.829 390.003H363.829C359.411 390.003 355.829 386.422 355.829 382.003V271.916Z" fill="#2948FF"/>
<path d="M441.257 304.359C441.257 299.941 444.839 296.359 449.257 296.359H465.257C469.675 296.359 473.257 299.941 473.257 304.359V382.003C473.257 386.422 469.675 390.003 465.257 390.003H449.257C444.839 390.003 441.257 386.422 441.257 382.003V304.359Z" fill="#2948FF"/>
<path d="M526.686 114.317C526.686 109.899 530.267 106.317 534.686 106.317H550.686C555.104 106.317 558.686 109.899 558.686 114.317V382.003C558.686 386.422 555.104 390.003 550.686 390.003H534.686C530.267 390.003 526.686 386.422 526.686 382.003V114.317Z" fill="#2948FF"/>
<path d="M612.114 375.538C612.114 371.119 615.696 367.538 620.114 367.538H636.114C640.533 367.538 644.114 371.119 644.114 375.538V382.003C644.114 386.422 640.533 390.003 636.114 390.003H620.114C615.696 390.003 612.114 386.422 612.114 382.003V375.538Z" fill="#2948FF"/>
<path d="M93.016 432.602C92.392 432.602 91.792 432.502 91.216 432.302C90.648 432.094 90.208 431.83 89.896 431.51L90.244 430.826C90.54 431.114 90.936 431.358 91.432 431.558C91.936 431.75 92.464 431.846 93.016 431.846C93.544 431.846 93.972 431.782 94.3 431.654C94.636 431.518 94.88 431.338 95.032 431.114C95.192 430.89 95.272 430.642 95.272 430.37C95.272 430.042 95.176 429.778 94.984 429.578C94.8 429.378 94.556 429.222 94.252 429.11C93.948 428.99 93.612 428.886 93.244 428.798C92.876 428.71 92.508 428.618 92.14 428.522C91.772 428.418 91.432 428.282 91.12 428.114C90.816 427.946 90.568 427.726 90.376 427.454C90.192 427.174 90.1 426.81 90.1 426.362C90.1 425.946 90.208 425.566 90.424 425.222C90.648 424.87 90.988 424.59 91.444 424.382C91.9 424.166 92.484 424.058 93.196 424.058C93.668 424.058 94.136 424.126 94.6 424.262C95.064 424.39 95.464 424.57 95.8 424.802L95.5 425.51C95.14 425.27 94.756 425.094 94.348 424.982C93.948 424.87 93.56 424.814 93.184 424.814C92.68 424.814 92.264 424.882 91.936 425.018C91.608 425.154 91.364 425.338 91.204 425.57C91.052 425.794 90.976 426.05 90.976 426.338C90.976 426.666 91.068 426.93 91.252 427.13C91.444 427.33 91.692 427.486 91.996 427.598C92.308 427.71 92.648 427.81 93.016 427.898C93.384 427.986 93.748 428.082 94.108 428.186C94.476 428.29 94.812 428.426 95.116 428.594C95.428 428.754 95.676 428.97 95.86 429.242C96.052 429.514 96.148 429.87 96.148 430.31C96.148 430.718 96.036 431.098 95.812 431.45C95.588 431.794 95.244 432.074 94.78 432.29C94.324 432.498 93.736 432.602 93.016 432.602ZM101.851 432.53V431.138L101.815 430.91V428.582C101.815 428.046 101.663 427.634 101.359 427.346C101.063 427.058 100.619 426.914 100.027 426.914C99.6188 426.914 99.2308 426.982 98.8628 427.118C98.4948 427.254 98.1828 427.434 97.9268 427.658L97.5428 427.022C97.8628 426.75 98.2468 426.542 98.6948 426.398C99.1428 426.246 99.6148 426.17 100.111 426.17C100.927 426.17 101.555 426.374 101.995 426.782C102.443 427.182 102.667 427.794 102.667 428.618V432.53H101.851ZM99.6788 432.59C99.2068 432.59 98.7948 432.514 98.4428 432.362C98.0988 432.202 97.8348 431.986 97.6508 431.714C97.4668 431.434 97.3748 431.114 97.3748 430.754C97.3748 430.426 97.4508 430.13 97.6028 429.866C97.7628 429.594 98.0188 429.378 98.3708 429.218C98.7308 429.05 99.2108 428.966 99.8108 428.966H101.983V429.602H99.8348C99.2268 429.602 98.8028 429.71 98.5628 429.926C98.3308 430.142 98.2148 430.41 98.2148 430.73C98.2148 431.09 98.3548 431.378 98.6348 431.594C98.9148 431.81 99.3068 431.918 99.8108 431.918C100.291 431.918 100.703 431.81 101.047 431.594C101.399 431.37 101.655 431.05 101.815 430.634L102.007 431.222C101.847 431.638 101.567 431.97 101.167 432.218C100.775 432.466 100.279 432.59 99.6788 432.59ZM106.973 432.59C106.381 432.59 105.925 432.43 105.605 432.11C105.285 431.79 105.125 431.338 105.125 430.754V424.838H105.977V430.706C105.977 431.074 106.069 431.358 106.253 431.558C106.445 431.758 106.717 431.858 107.069 431.858C107.445 431.858 107.757 431.75 108.005 431.534L108.305 432.146C108.137 432.298 107.933 432.41 107.693 432.482C107.461 432.554 107.221 432.59 106.973 432.59ZM103.997 426.938V426.23H107.897V426.938H103.997Z" fill="#0B132A"/>
<path d="M175.907 432.602C175.283 432.602 174.683 432.502 174.107 432.302C173.539 432.094 173.099 431.83 172.787 431.51L173.135 430.826C173.431 431.114 173.827 431.358 174.323 431.558C174.827 431.75 175.355 431.846 175.907 431.846C176.435 431.846 176.863 431.782 177.191 431.654C177.527 431.518 177.771 431.338 177.923 431.114C178.083 430.89 178.163 430.642 178.163 430.37C178.163 430.042 178.067 429.778 177.875 429.578C177.691 429.378 177.447 429.222 177.143 429.11C176.839 428.99 176.503 428.886 176.135 428.798C175.767 428.71 175.399 428.618 175.031 428.522C174.663 428.418 174.323 428.282 174.011 428.114C173.707 427.946 173.459 427.726 173.267 427.454C173.083 427.174 172.991 426.81 172.991 426.362C172.991 425.946 173.099 425.566 173.315 425.222C173.539 424.87 173.879 424.59 174.335 424.382C174.791 424.166 175.375 424.058 176.087 424.058C176.559 424.058 177.027 424.126 177.491 424.262C177.955 424.39 178.355 424.57 178.691 424.802L178.391 425.51C178.031 425.27 177.647 425.094 177.239 424.982C176.839 424.87 176.451 424.814 176.075 424.814C175.571 424.814 175.155 424.882 174.827 425.018C174.499 425.154 174.255 425.338 174.095 425.57C173.943 425.794 173.867 426.05 173.867 426.338C173.867 426.666 173.959 426.93 174.143 427.13C174.335 427.33 174.583 427.486 174.887 427.598C175.199 427.71 175.539 427.81 175.907 427.898C176.275 427.986 176.639 428.082 176.999 428.186C177.367 428.29 177.703 428.426 178.007 428.594C178.319 428.754 178.567 428.97 178.751 429.242C178.943 429.514 179.039 429.87 179.039 430.31C179.039 430.718 178.927 431.098 178.703 431.45C178.479 431.794 178.135 432.074 177.671 432.29C177.215 432.498 176.627 432.602 175.907 432.602ZM183.397 432.59C182.861 432.59 182.393 432.49 181.993 432.29C181.593 432.09 181.281 431.79 181.057 431.39C180.841 430.99 180.733 430.49 180.733 429.89V426.23H181.585V429.794C181.585 430.466 181.749 430.974 182.077 431.318C182.413 431.654 182.881 431.822 183.481 431.822C183.921 431.822 184.301 431.734 184.621 431.558C184.949 431.374 185.197 431.11 185.365 430.766C185.541 430.422 185.629 430.01 185.629 429.53V426.23H186.481V432.53H185.665V430.802L185.797 431.114C185.597 431.578 185.285 431.942 184.861 432.206C184.445 432.462 183.957 432.59 183.397 432.59ZM192.072 426.17C192.584 426.17 193.032 426.27 193.416 426.47C193.808 426.662 194.112 426.958 194.328 427.358C194.552 427.758 194.664 428.262 194.664 428.87V432.53H193.812V428.954C193.812 428.29 193.644 427.79 193.308 427.454C192.98 427.11 192.516 426.938 191.916 426.938C191.468 426.938 191.076 427.03 190.74 427.214C190.412 427.39 190.156 427.65 189.972 427.994C189.796 428.33 189.708 428.738 189.708 429.218V432.53H188.856V426.23H189.672V427.958L189.54 427.634C189.74 427.178 190.06 426.822 190.5 426.566C190.94 426.302 191.464 426.17 192.072 426.17Z" fill="#0B132A"/>
<path d="M256.821 432.53V424.13H257.553L261.393 430.682H261.009L264.813 424.13H265.545V432.53H264.693V425.462H264.897L261.393 431.462H260.973L257.445 425.462H257.673V432.53H256.821ZM270.67 432.59C270.062 432.59 269.514 432.454 269.026 432.182C268.546 431.902 268.166 431.522 267.886 431.042C267.606 430.554 267.466 429.998 267.466 429.374C267.466 428.742 267.606 428.186 267.886 427.706C268.166 427.226 268.546 426.85 269.026 426.578C269.506 426.306 270.054 426.17 270.67 426.17C271.294 426.17 271.846 426.306 272.326 426.578C272.814 426.85 273.194 427.226 273.466 427.706C273.746 428.186 273.886 428.742 273.886 429.374C273.886 429.998 273.746 430.554 273.466 431.042C273.194 431.522 272.814 431.902 272.326 432.182C271.838 432.454 271.286 432.59 270.67 432.59ZM270.67 431.834C271.126 431.834 271.53 431.734 271.882 431.534C272.234 431.326 272.51 431.038 272.71 430.67C272.918 430.294 273.022 429.862 273.022 429.374C273.022 428.878 272.918 428.446 272.71 428.078C272.51 427.71 272.234 427.426 271.882 427.226C271.53 427.018 271.13 426.914 270.682 426.914C270.234 426.914 269.834 427.018 269.482 427.226C269.13 427.426 268.85 427.71 268.642 428.078C268.434 428.446 268.33 428.878 268.33 429.374C268.33 429.862 268.434 430.294 268.642 430.67C268.85 431.038 269.13 431.326 269.482 431.534C269.834 431.734 270.23 431.834 270.67 431.834ZM278.842 426.17C279.354 426.17 279.802 426.27 280.186 426.47C280.578 426.662 280.882 426.958 281.098 427.358C281.322 427.758 281.434 428.262 281.434 428.87V432.53H280.582V428.954C280.582 428.29 280.414 427.79 280.078 427.454C279.75 427.11 279.286 426.938 278.686 426.938C278.238 426.938 277.846 427.03 277.51 427.214C277.182 427.39 276.926 427.65 276.742 427.994C276.566 428.33 276.478 428.738 276.478 429.218V432.53H275.626V426.23H276.442V427.958L276.31 427.634C276.51 427.178 276.83 426.822 277.27 426.566C277.71 426.302 278.234 426.17 278.842 426.17Z" fill="#0B132A"/>
<path d="M345.984 432.53V424.898H343.032V424.13H349.824V424.898H346.872V432.53H345.984ZM353.503 432.59C352.967 432.59 352.499 432.49 352.099 432.29C351.699 432.09 351.387 431.79 351.163 431.39C350.947 430.99 350.839 430.49 350.839 429.89V426.23H351.691V429.794C351.691 430.466 351.855 430.974 352.183 431.318C352.519 431.654 352.987 431.822 353.587 431.822C354.027 431.822 354.407 431.734 354.727 431.558C355.055 431.374 355.303 431.11 355.471 430.766C355.647 430.422 355.735 430.01 355.735 429.53V426.23H356.587V432.53H355.771V430.802L355.903 431.114C355.703 431.578 355.391 431.942 354.967 432.206C354.551 432.462 354.063 432.59 353.503 432.59ZM361.637 432.59C360.981 432.59 360.405 432.454 359.909 432.182C359.413 431.902 359.025 431.522 358.745 431.042C358.465 430.554 358.325 429.998 358.325 429.374C358.325 428.75 358.457 428.198 358.721 427.718C358.993 427.238 359.361 426.862 359.825 426.59C360.297 426.31 360.825 426.17 361.409 426.17C362.001 426.17 362.525 426.306 362.981 426.578C363.445 426.842 363.809 427.218 364.073 427.706C364.337 428.186 364.469 428.742 364.469 429.374C364.469 429.414 364.465 429.458 364.457 429.506C364.457 429.546 364.457 429.59 364.457 429.638H358.973V429.002H364.001L363.665 429.254C363.665 428.798 363.565 428.394 363.365 428.042C363.173 427.682 362.909 427.402 362.573 427.202C362.237 427.002 361.849 426.902 361.409 426.902C360.977 426.902 360.589 427.002 360.245 427.202C359.901 427.402 359.633 427.682 359.441 428.042C359.249 428.402 359.153 428.814 359.153 429.278V429.41C359.153 429.89 359.257 430.314 359.465 430.682C359.681 431.042 359.977 431.326 360.353 431.534C360.737 431.734 361.173 431.834 361.661 431.834C362.045 431.834 362.401 431.766 362.729 431.63C363.065 431.494 363.353 431.286 363.593 431.006L364.073 431.558C363.793 431.894 363.441 432.15 363.017 432.326C362.601 432.502 362.141 432.59 361.637 432.59Z" fill="#0B132A"/>
<path d="M428.249 432.53L425.417 424.13H426.329L428.981 432.038H428.525L431.261 424.13H432.077L434.777 432.038H434.345L437.021 424.13H437.873L435.041 432.53H434.105L431.525 425.03H431.765L429.173 432.53H428.249ZM441.516 432.59C440.86 432.59 440.284 432.454 439.788 432.182C439.292 431.902 438.904 431.522 438.624 431.042C438.344 430.554 438.204 429.998 438.204 429.374C438.204 428.75 438.336 428.198 438.6 427.718C438.872 427.238 439.24 426.862 439.704 426.59C440.176 426.31 440.704 426.17 441.288 426.17C441.88 426.17 442.404 426.306 442.86 426.578C443.324 426.842 443.688 427.218 443.952 427.706C444.216 428.186 444.348 428.742 444.348 429.374C444.348 429.414 444.344 429.458 444.336 429.506C444.336 429.546 444.336 429.59 444.336 429.638H438.852V429.002H443.88L443.544 429.254C443.544 428.798 443.444 428.394 443.244 428.042C443.052 427.682 442.788 427.402 442.452 427.202C442.116 427.002 441.728 426.902 441.288 426.902C440.856 426.902 440.468 427.002 440.124 427.202C439.78 427.402 439.512 427.682 439.32 428.042C439.128 428.402 439.032 428.814 439.032 429.278V429.41C439.032 429.89 439.136 430.314 439.344 430.682C439.56 431.042 439.856 431.326 440.232 431.534C440.616 431.734 441.052 431.834 441.54 431.834C441.924 431.834 442.28 431.766 442.608 431.63C442.944 431.494 443.232 431.286 443.472 431.006L443.952 431.558C443.672 431.894 443.32 432.15 442.896 432.326C442.48 432.502 442.02 432.59 441.516 432.59ZM448.591 432.59C447.991 432.59 447.451 432.454 446.971 432.182C446.499 431.91 446.127 431.534 445.855 431.054C445.583 430.566 445.447 430.006 445.447 429.374C445.447 428.734 445.583 428.174 445.855 427.694C446.127 427.214 446.499 426.842 446.971 426.578C447.451 426.306 447.991 426.17 448.591 426.17C449.143 426.17 449.635 426.294 450.067 426.542C450.507 426.79 450.855 427.154 451.111 427.634C451.375 428.106 451.507 428.686 451.507 429.374C451.507 430.054 451.379 430.634 451.123 431.114C450.867 431.594 450.519 431.962 450.079 432.218C449.647 432.466 449.151 432.59 448.591 432.59ZM448.651 431.834C449.099 431.834 449.499 431.734 449.851 431.534C450.211 431.326 450.491 431.038 450.691 430.67C450.899 430.294 451.003 429.862 451.003 429.374C451.003 428.878 450.899 428.446 450.691 428.078C450.491 427.71 450.211 427.426 449.851 427.226C449.499 427.018 449.099 426.914 448.651 426.914C448.211 426.914 447.815 427.018 447.463 427.226C447.111 427.426 446.831 427.71 446.623 428.078C446.415 428.446 446.311 428.878 446.311 429.374C446.311 429.862 446.415 430.294 446.623 430.67C446.831 431.038 447.111 431.326 447.463 431.534C447.815 431.734 448.211 431.834 448.651 431.834ZM451.027 432.53V430.634L451.111 429.362L450.991 428.09V423.626H451.843V432.53H451.027Z" fill="#0B132A"/>
<path d="M515.469 432.53V424.898H512.517V424.13H519.309V424.898H516.357V432.53H515.469ZM523.763 426.17C524.275 426.17 524.723 426.27 525.107 426.47C525.499 426.662 525.803 426.958 526.019 427.358C526.243 427.758 526.355 428.262 526.355 428.87V432.53H525.503V428.954C525.503 428.29 525.335 427.79 524.999 427.454C524.671 427.11 524.207 426.938 523.607 426.938C523.159 426.938 522.767 427.03 522.431 427.214C522.103 427.39 521.847 427.65 521.663 427.994C521.487 428.33 521.399 428.738 521.399 429.218V432.53H520.547V423.626H521.399V427.958L521.231 427.634C521.431 427.178 521.751 426.822 522.191 426.566C522.631 426.302 523.155 426.17 523.763 426.17ZM531.261 432.59C530.725 432.59 530.257 432.49 529.857 432.29C529.457 432.09 529.145 431.79 528.921 431.39C528.705 430.99 528.597 430.49 528.597 429.89V426.23H529.449V429.794C529.449 430.466 529.613 430.974 529.941 431.318C530.277 431.654 530.745 431.822 531.345 431.822C531.785 431.822 532.165 431.734 532.485 431.558C532.813 431.374 533.061 431.11 533.229 430.766C533.405 430.422 533.493 430.01 533.493 429.53V426.23H534.345V432.53H533.529V430.802L533.661 431.114C533.461 431.578 533.149 431.942 532.725 432.206C532.309 432.462 531.821 432.59 531.261 432.59Z" fill="#0B132A"/>
<path d="M603.449 428.198H607.889V428.966H603.449V428.198ZM603.545 432.53H602.657V424.13H608.417V424.898H603.545V432.53ZM609.954 432.53V426.23H610.77V427.946L610.686 427.646C610.862 427.166 611.158 426.802 611.574 426.554C611.99 426.298 612.506 426.17 613.122 426.17V426.998C613.09 426.998 613.058 426.998 613.026 426.998C612.994 426.99 612.962 426.986 612.93 426.986C612.266 426.986 611.746 427.19 611.37 427.598C610.994 427.998 610.806 428.57 610.806 429.314V432.53H609.954ZM614.676 432.53V426.23H615.528V432.53H614.676ZM615.108 424.838C614.932 424.838 614.784 424.778 614.664 424.658C614.544 424.538 614.484 424.394 614.484 424.226C614.484 424.058 614.544 423.918 614.664 423.806C614.784 423.686 614.932 423.626 615.108 423.626C615.284 423.626 615.432 423.682 615.552 423.794C615.672 423.906 615.732 424.046 615.732 424.214C615.732 424.39 615.672 424.538 615.552 424.658C615.44 424.778 615.292 424.838 615.108 424.838Z" fill="#0B132A"/>
</svg>
