<svg width="19" height="20" viewBox="0 0 19 20" fill="none" xmlns="http://www.w3.org/2000/svg">
<path d="M16.3238 7.4675C16.3238 7.4675 15.7808 14.2025 15.4658 17.0395C15.3158 18.3945 14.4788 19.1885 13.1078 19.2135C10.4988 19.2605 7.88681 19.2635 5.27881 19.2085C3.95981 19.1815 3.13681 18.3775 2.98981 17.0465C2.67281 14.1845 2.13281 7.4675 2.13281 7.4675" stroke="#D00000" stroke-width="1.5" stroke-linecap="round" stroke-linejoin="round"/>
<path d="M17.708 4.23901H0.75" stroke="#D00000" stroke-width="1.5" stroke-linecap="round" stroke-linejoin="round"/>
<path d="M14.4406 4.239C13.6556 4.239 12.9796 3.684 12.8256 2.915L12.5826 1.699C12.4326 1.138 11.9246 0.75 11.3456 0.75H7.11258C6.53358 0.75 6.02558 1.138 5.87558 1.699L5.63258 2.915C5.47858 3.684 4.80258 4.239 4.01758 4.239" stroke="#D00000" stroke-width="1.5" stroke-linecap="round" stroke-linejoin="round"/>
</svg>
